<svg width="18" height="18" viewBox="0 0 18 18" fill="none" xmlns="http://www.w3.org/2000/svg">
<path fill-rule="evenodd" clip-rule="evenodd" d="M13.9916 14.5137C13.7493 14.2188 13.5262 13.9071 13.3234 13.5809H16.4327C16.6193 13.2819 16.7878 12.9704 16.9382 12.6482H12.8181C12.6776 12.3465 12.5529 12.0352 12.4466 11.7158H17.309C17.6018 10.8376 17.76 9.89807 17.76 8.92072C17.76 8.28075 17.6921 7.65665 17.5632 7.05565H12.1932C12.2611 6.73789 12.3468 6.42695 12.4477 6.12298H17.3084C17.2018 5.80355 17.0777 5.49247 16.9374 5.19072H12.8189C12.9694 4.86851 13.1383 4.55757 13.3243 4.25791H16.4317C16.229 3.9325 16.0053 3.62142 15.7635 3.32607H13.9927C14.2652 2.99412 14.5612 2.68248 14.8782 2.39395C13.321 0.976641 11.2543 0.113281 8.98738 0.113281C4.1418 0.113281 0.213867 4.05623 0.213867 8.92072C0.213867 13.7851 4.1418 17.7279 8.98738 17.7279C11.2544 17.7279 13.3213 16.8645 14.8782 15.4478C15.1956 15.1587 15.492 14.8463 15.7645 14.5137H13.9916Z" fill="#0066CC"/>
</svg>
