<svg width="78" height="78" viewBox="0 0 78 78" fill="none" xmlns="http://www.w3.org/2000/svg">
<g clip-path="url(#clip0_104_1580)" filter="url(#filter0_d_104_1580)">
<path d="M30.3519 59.7644C30.2354 59.8223 30.1135 59.8692 29.9878 59.9045H29.9303C30.09 59.8624 30.2443 59.8029 30.3903 59.7271L30.3519 59.7644Z" fill="#56779C"/>
<path d="M29.1445 59.9795H28.9337H28.7804C28.9563 60.0202 29.1362 60.0421 29.317 60.0449L29.1445 59.9795Z" fill="#56779C"/>
<path d="M29.614 59.9701H29.3649C29.526 59.9658 29.6864 59.9471 29.844 59.9141L29.614 59.9701Z" fill="#56779C"/>
<path d="M13.707 52.4629C13.7655 52.5162 13.8298 52.5632 13.8987 52.603C13.8298 52.5632 13.7655 52.5162 13.707 52.4629V52.4629Z" fill="#56779C"/>
<path d="M62.0507 41.583C62.0543 41.6108 62.0543 41.6392 62.0507 41.6671C62.0525 41.6825 62.0525 41.6983 62.0507 41.7137C62.0555 41.6704 62.0555 41.6264 62.0507 41.583Z" fill="#56779C"/>
<path d="M13.6783 52.4438C13.6432 52.3961 13.6112 52.3462 13.5825 52.2944C13.6112 52.3462 13.6432 52.3961 13.6783 52.4438V52.4438Z" fill="#56779C"/>
<path d="M13.5825 52.2944C13.5524 52.2516 13.5298 52.2042 13.5154 52.1543C13.5298 52.2042 13.5524 52.2516 13.5825 52.2944Z" fill="#56779C"/>
<path d="M28.7228 59.9138L28.4928 59.8484C28.4161 59.8484 28.3395 59.783 28.2628 59.7363C28.4158 59.8208 28.5804 59.8837 28.7515 59.9231L28.7228 59.9138Z" fill="#56779C"/>
<path d="M56.4161 54.0961C56.5216 54.0401 56.5599 53.9841 56.5599 53.9467C56.5599 53.9094 56.5599 53.8533 56.4257 53.7973L51.8166 51.1826C51.6527 51.1043 51.4719 51.0659 51.2895 51.0705C51.1028 51.0639 50.9176 51.1058 50.7529 51.1919L44.0452 54.9272C43.9398 54.9833 43.8918 55.0393 43.8918 55.0767C43.8918 55.114 43.8918 55.17 44.0356 55.2261L48.6831 57.8315C48.8431 57.9205 49.0261 57.9626 49.2101 57.9529C49.397 57.9604 49.5824 57.9184 49.7467 57.8315L56.4161 54.0961Z" fill="#007695"/>
<path d="M56.5503 53.536L51.9123 50.9306C51.71 50.8267 51.4847 50.7725 51.2559 50.7725C51.0272 50.7725 50.8019 50.8267 50.5996 50.9306L43.8918 54.6659C43.5277 54.8714 43.5181 55.2076 43.8918 55.413L48.501 58.0184C48.7039 58.1255 48.9315 58.1801 49.1622 58.1772C49.3958 58.1789 49.6262 58.1244 49.833 58.0184L56.5407 54.2831C56.924 54.0963 56.9144 53.7415 56.5503 53.536ZM48.6831 57.8316L44.0739 55.2262C43.9685 55.1702 43.9301 55.1142 43.9301 55.0768C43.9301 55.0395 43.9301 54.9834 44.0835 54.9274L50.7912 51.1921C50.9559 51.106 51.1411 51.0641 51.3278 51.0707C51.5102 51.0661 51.691 51.1045 51.8549 51.1827L56.464 53.7975C56.5598 53.8535 56.5982 53.9095 56.5982 53.9469C56.5982 53.9842 56.5982 54.0403 56.4544 54.0963L49.7467 57.8316C49.5824 57.9186 49.3969 57.9606 49.2101 57.953C49.0261 57.9628 48.8431 57.9206 48.6831 57.8316Z" fill="#232323"/>
<path d="M7.30604 53.1063C7.40862 53.3293 7.58375 53.5131 7.80433 53.6293L32.3546 67.5434C32.4219 67.5831 32.4924 67.6175 32.5654 67.6461C32.6414 67.6838 32.7218 67.712 32.805 67.7301L32.9487 67.7768H33.0158H33.2171H33.4279H33.8782H34.1657H34.2903H34.434C34.6258 67.736 34.81 67.6667 34.9802 67.5714L73.4347 45.9065L73.6168 45.7944L73.6743 45.7384C73.6743 45.7384 73.6743 45.6917 73.7413 45.6637C73.7674 45.6253 73.7898 45.5846 73.8084 45.5423C73.8084 45.5423 73.8084 45.5423 73.8084 45.5423C73.813 45.502 73.813 45.4612 73.8084 45.4209V46.5415C73.8084 46.5415 73.8084 46.6162 73.8084 46.6442C73.8084 46.6722 73.8084 46.7002 73.8084 46.7283C73.7992 46.7725 73.7795 46.8141 73.7509 46.8497L73.6838 46.9244L73.6168 46.9897H73.5593L73.3772 47.1111L34.9898 68.692C34.8185 68.7851 34.6347 68.8543 34.4436 68.8974H34.2999H34.1657C34.0733 68.9071 33.9802 68.9071 33.8878 68.8974L33.7058 69.0375H33.4854H33.2841C33.2174 69.0472 33.1496 69.0472 33.0829 69.0375H33.0158C32.9632 69.0231 32.9119 69.0044 32.8625 68.9815C32.7843 68.9576 32.7075 68.9295 32.6325 68.8974C32.5654 68.8974 32.4792 68.8974 32.4217 68.8134L7.83307 56.16C7.68684 56.0913 7.56088 55.9877 7.46702 55.8586C7.37316 55.7296 7.31447 55.5794 7.29645 55.4222C7.29645 54.5818 7.29645 53.7507 7.29645 52.9102C7.28591 52.9755 7.28917 53.0423 7.30604 53.1063V53.1063Z" fill="#0A1D23"/>
<path d="M31.3485 54.5444L35.469 56.879L32.7475 58.4198L28.6271 56.0759L31.3485 54.5444Z" fill="#00586F"/>
<path d="M44.9554 46.8867L49.0759 49.2213L46.3545 50.7528L42.234 48.4182L44.9554 46.8867Z" fill="#00586F"/>
<path d="M27.9563 56.4585L32.0672 58.7651L30.3902 59.6989C30.2443 59.7747 30.09 59.8342 29.9303 59.8763H29.8153C29.6577 59.9093 29.4973 59.9281 29.3362 59.9323V59.9323C29.1554 59.9296 28.9755 59.9077 28.7995 59.867V59.867C28.6284 59.8276 28.4639 59.7647 28.3108 59.6802L25.254 57.9526L27.9563 56.4585Z" fill="#00586F"/>
<path d="M41.5538 48.8105L45.6743 51.1358L42.9529 52.6673L38.8324 50.3327L41.5538 48.8105Z" fill="#00586F"/>
<path d="M23.8166 54.124L27.3238 56.1131L24.6024 57.6446L24.5928 57.6539L21.076 55.6648H21.0952L23.8166 54.124Z" fill="#00586F"/>
<path d="M19.6865 51.7896L23.2032 53.7786L20.4722 55.3101L20.4626 55.3194L16.9554 53.3304L16.9746 53.321L19.6865 51.7896Z" fill="#00586F"/>
<path d="M48.3573 44.9819L52.4777 47.3165L49.7659 48.8387L45.6359 46.5041L48.3573 44.9819Z" fill="#00586F"/>
<path d="M55.1608 41.144L59.2908 43.4786L56.5694 45.0101L52.4393 42.6755L55.1608 41.144Z" fill="#00586F"/>
<path d="M34.7501 52.6392L38.8706 54.9644L36.1492 56.4959L32.0287 54.1613L34.7501 52.6392Z" fill="#00586F"/>
<path d="M51.7591 43.0581L55.8892 45.3927L53.1582 46.9242L49.0377 44.5896L51.7591 43.0581Z" fill="#00586F"/>
<path d="M44.2944 41.9097L40.7872 39.9206L43.5087 38.3892L47.0254 40.3782L44.2944 41.9097Z" fill="#00586F"/>
<path d="M47.6002 36.092L50.3025 34.5698L53.8097 36.5589L51.1074 38.081L47.6002 36.092Z" fill="#00586F"/>
<path d="M37.4907 45.7383L33.9835 43.7493L36.7049 42.2178L40.2121 44.2068L37.4907 45.7383Z" fill="#00586F"/>
<path d="M34.0891 47.6435L30.5819 45.6638L33.3033 44.1323L36.8105 46.1214L34.0891 47.6435Z" fill="#00586F"/>
<path d="M27.2854 51.4815L23.7782 49.4924L26.4996 47.9609L30.0068 49.95L27.2854 51.4815Z" fill="#00586F"/>
<path d="M43.5757 37.6607L40.0685 35.6716L42.7899 34.1401L46.2971 36.1292L43.5757 37.6607Z" fill="#00586F"/>
<path d="M40.9021 43.8144L37.3949 41.8347L40.1067 40.3032L43.6139 42.2923L40.9021 43.8144Z" fill="#00586F"/>
<path d="M51.7208 38.4264L54.4231 36.9043L57.9399 38.8934L55.228 40.4155L51.7208 38.4264Z" fill="#00586F"/>
<path d="M23.8838 53.3956L20.3766 51.4158L23.098 49.875L26.6052 51.8641L23.8838 53.3956Z" fill="#00586F"/>
<path d="M30.7351 54.199L28.0137 55.7305L24.4969 53.7508L27.2184 52.21L30.7351 54.199Z" fill="#00586F"/>
<path d="M40.1738 39.5752L36.6666 37.5862L39.3881 36.0547L42.8952 38.0344L40.1738 39.5752Z" fill="#00586F"/>
<path d="M47.6385 40.7236L51.1457 42.7127L48.4243 44.2442L44.9171 42.2551L47.6385 40.7236Z" fill="#00586F"/>
<path d="M30.6872 49.5669L27.1801 47.5779L29.9015 46.0464L33.4087 48.0354L30.6872 49.5669Z" fill="#00586F"/>
<path d="M30.6202 50.3047L34.137 52.2844L31.4156 53.8159L27.8988 51.8268L30.6202 50.3047Z" fill="#00586F"/>
<path d="M37.4236 46.4761L40.9404 48.4558L38.219 49.9873L34.7118 47.9982L37.4236 46.4761Z" fill="#00586F"/>
<path d="M34.0314 48.3809L37.5386 50.3699L34.8172 51.9014L31.3004 49.9123L34.0314 48.3809Z" fill="#00586F"/>
<path d="M43.4703 33.7573L45.1089 32.8235C45.4385 32.6603 45.8029 32.5752 46.1726 32.5752C46.5423 32.5752 46.9067 32.6603 47.2362 32.8235L49.6798 34.2055L46.9775 35.7277L43.4703 33.7573Z" fill="#00586F"/>
<path d="M44.2369 42.6382L47.7441 44.6272L45.0227 46.1587L41.5155 44.1697L44.2369 42.6382Z" fill="#00586F"/>
<path d="M13.8987 50.3606L15.5661 49.4268L19.0733 51.4158L16.3518 52.9753L13.9179 51.5932C13.849 51.5535 13.7847 51.5065 13.7263 51.4532V51.4532C13.6743 51.4039 13.6262 51.3508 13.5825 51.2944V51.2944C13.5525 51.2516 13.5298 51.2043 13.5154 51.1543C13.5154 51.1543 13.5154 51.0983 13.5154 51.061C13.4963 50.9198 13.523 50.7764 13.5917 50.6508C13.6604 50.5252 13.7678 50.4237 13.8987 50.3606V50.3606Z" fill="#00586F"/>
<path d="M62.0218 41.7414C61.9799 41.8548 61.907 41.9548 61.811 42.0309C61.7496 42.0849 61.6821 42.1319 61.6098 42.1709L59.9808 43.1048L55.8507 40.7702L58.5625 39.248L61.6098 41.0223C61.7311 41.0748 61.8359 41.1579 61.9133 41.2629C61.9908 41.3679 62.0382 41.4912 62.0506 41.62V41.62C62.0465 41.6615 62.0368 41.7023 62.0218 41.7414Z" fill="#00586F"/>
<path d="M23.165 49.1465L19.6578 47.1575L22.3697 45.626L25.8769 47.615L23.165 49.1465Z" fill="#00586F"/>
<path d="M19.7536 51.0611L16.2465 49.072L18.9679 47.5405L22.4847 49.5296L19.7536 51.0611Z" fill="#00586F"/>
<path d="M29.9685 45.3086L26.4613 43.3288L29.1731 41.7974L32.6899 43.7864L29.9685 45.3086Z" fill="#00586F"/>
<path d="M26.5669 47.2325L23.0597 45.2434L25.7811 43.7119L29.2883 45.701L26.5669 47.2325Z" fill="#00586F"/>
<path d="M33.3703 43.4038L29.8632 41.4148L32.5846 39.8833L36.0918 41.8724L33.3703 43.4038Z" fill="#00586F"/>
<path d="M38.152 50.7158L42.2724 53.0504L39.551 54.5819L35.4305 52.2473L38.152 50.7158Z" fill="#00586F"/>
<path d="M40.8351 44.5522L44.3423 46.5413L41.6208 48.0728L38.1136 46.0837L40.8351 44.5522Z" fill="#00586F"/>
<path d="M36.7722 41.48L33.265 39.5002L35.9864 37.9688L39.4936 39.9578L36.7722 41.48Z" fill="#00586F"/>
<path d="M44.1986 38.0061L46.9105 36.4746L50.4272 38.4637L47.7058 39.9952L44.1986 38.0061Z" fill="#00586F"/>
<path d="M48.319 40.3406L51.0404 38.8091L54.5476 40.7981L51.8262 42.3296L48.319 40.3406Z" fill="#00586F"/>
<path d="M55.8411 40.7611L58.553 39.2389L57.9397 38.8934L55.2279 40.4155L51.7207 38.4265L54.4229 36.9043L53.8288 36.5495L51.1266 38.0716L47.6002 36.0919L50.3025 34.5698L49.6796 34.2242L46.9773 35.7464L43.4702 33.7573L42.7898 34.1402L46.297 36.1293L43.5756 37.6607L40.0684 35.6717L39.388 36.0545L42.8952 38.0436L40.1738 39.5751L36.6666 37.586L35.9862 37.9689L39.4551 39.958L36.772 41.4801L33.2648 39.5004L32.5845 39.8833L36.0916 41.8723L33.3702 43.4038L29.8726 41.4147L29.1923 41.7976L32.6899 43.824L29.9684 45.3088L26.4613 43.3291L25.7809 43.712L29.2881 45.6917L26.5667 47.2232L23.0595 45.2341L22.3791 45.617L25.8863 47.606L23.1649 49.1469L19.6577 47.1578L18.9773 47.5407L22.4845 49.5297L19.7631 51.0612L16.2559 49.0722L15.5756 49.455L19.0827 51.4441L16.3517 52.9756L16.9746 53.3211L19.696 51.7896L23.1649 53.7787L20.4722 55.3102L21.0855 55.6557L23.8165 54.0962L27.3237 56.0852L24.6023 57.6447L25.2155 57.9996L27.9561 56.4588L32.067 58.7653L32.7474 58.3825L28.6269 56.0385L31.3483 54.5071L35.4688 56.8416L36.1491 56.4588L32.0287 54.1242L34.7501 52.602L38.8706 54.9273L39.5509 54.5444L35.4305 52.2285L38.1519 50.697L42.2723 53.0316L42.9527 52.6487L38.8322 50.3608L41.5537 48.8294L45.6741 51.1639L46.3545 50.7811L42.234 48.4465L44.9554 46.915L49.0759 49.2496L49.7658 48.8667L45.6358 46.5321L48.3572 45.01L52.4777 47.3446L53.158 46.9524L49.0376 44.5898L51.759 43.0583L55.889 45.3929L56.5694 45.01L52.4394 42.6754L55.1608 41.1439L59.2908 43.4785L59.9712 43.0956L55.8411 40.7611ZM44.9171 42.2552L47.6385 40.7237L51.1457 42.7128L48.4243 44.2443L44.9171 42.2552ZM41.5153 44.1229L44.2463 42.6381L47.7535 44.6271L45.0225 46.1586L41.5153 44.1229ZM38.1135 46.0839L40.835 44.5524L44.3422 46.5415L41.6207 48.073L38.1135 46.0839ZM34.7118 47.9516L37.4236 46.4201L40.9404 48.4932L38.219 49.9873L34.7118 47.9516ZM31.3004 49.8659L34.0314 48.3344L37.5386 50.3608L34.8172 51.8923L31.3004 49.8659ZM27.8986 51.7336L30.6201 50.2114L34.1368 52.1912L31.4154 53.816L27.8986 51.7336ZM24.4968 53.6012L27.2183 52.2285L30.735 54.2176L28.0136 55.7491L24.4968 53.6012ZM26.605 51.7336L23.8836 53.2651L20.3764 51.276L23.0978 49.7445L26.605 51.7336ZM30.0068 49.8659L27.2853 51.4814L23.7782 49.4924L26.4996 47.9609L30.0068 49.8659ZM33.4086 47.9516L30.6871 49.483L27.1799 47.5594L29.8726 46.0465L33.4086 47.9516ZM36.8103 46.0839L34.0889 47.6527L30.5817 45.6917L33.3031 44.1602L36.8103 46.0839ZM40.2121 44.1695L37.5386 45.7384L34.0314 43.7493L36.7528 42.2178L40.2121 44.1695ZM43.6139 42.3019L40.902 43.824L37.3949 41.8443L40.1067 40.3128L43.6139 42.3019ZM47.0253 40.4342L44.2942 41.9564L40.7871 39.9673L43.5181 38.4358L47.0253 40.4342ZM50.4175 38.5199L47.7056 39.9953L44.2463 38.0063L46.9678 36.4748L50.4175 38.5199ZM54.5475 40.8544L51.8261 42.3299L48.3189 40.3408L51.0403 38.8094L54.5475 40.8544Z" fill="#0A1D23"/>
<path d="M13.4674 51.0703C13.4674 51.0703 13.4674 51.1357 13.4674 51.1637C13.4973 51.2137 13.5362 51.258 13.5824 51.2944C13.6179 51.3403 13.6563 51.3839 13.6974 51.4252V51.4252C13.7559 51.4785 13.8201 51.5255 13.889 51.5652L16.323 52.9473L16.9458 53.2928L20.453 55.2819L21.0663 55.6274L24.5831 57.6165L25.1964 57.9713L28.2628 59.6989C28.3394 59.6989 28.4161 59.7736 28.4927 59.811L28.7227 59.8763H28.7802H28.9335H29.1443H29.3647H29.6139H29.8151H29.9301H29.9876C30.1133 59.841 30.2352 59.7941 30.3517 59.7363L32.0287 58.8024L32.709 58.4196L35.4688 56.8974L36.1491 56.5146L38.8706 54.9831L39.5509 54.6002L42.2723 53.0687L42.9527 52.6858L45.6741 51.1544L46.3545 50.7715L49.0376 49.2213L49.7275 48.8385L52.4393 47.3163L53.1197 46.9241L55.8507 45.3926L56.5311 45.0097L59.2525 43.4783L59.9328 43.0954L61.5619 42.1616C61.6342 42.1225 61.7017 42.0755 61.7631 42.0215V42.0215C61.8065 41.9858 61.8451 41.9451 61.8781 41.9001C61.9041 41.8616 61.9265 41.821 61.9452 41.7787V41.7787C61.9475 41.7632 61.9475 41.7475 61.9452 41.732C61.9498 41.7042 61.9498 41.6758 61.9452 41.6479V42.6378C61.9452 42.6378 61.9452 42.6378 61.9452 42.6938C61.9498 42.7217 61.9498 42.7501 61.9452 42.7779V42.7779C61.9338 42.8186 61.9143 42.8567 61.8877 42.8899V42.8899C61.8572 42.9369 61.8182 42.978 61.7727 43.0113V43.0113C61.7113 43.0654 61.6438 43.1124 61.5714 43.1514L30.3996 60.7448H30.3517L29.9972 60.8755H29.9301H29.8151H29.6139C29.5309 60.8801 29.4477 60.8801 29.3647 60.8755H29.1923H28.9814H28.8377H28.7802C28.7015 60.8532 28.6246 60.8251 28.5502 60.7915C28.4684 60.7691 28.3883 60.7411 28.3107 60.7075L13.9369 52.5644C13.815 52.5128 13.7097 52.4299 13.6321 52.3247C13.5545 52.2195 13.5076 52.0959 13.4962 51.9668V50.9956C13.4962 50.9956 13.4674 51.0516 13.4674 51.0703Z" fill="#0A1D23"/>
<path d="M5.10205 23.3355C5.09789 23.2826 5.09789 23.2296 5.10205 23.1767C5.09729 23.1333 5.09729 23.0894 5.10205 23.046V23.046V22.9059V22.7845V22.7098C5.10205 22.7098 5.10205 22.6351 5.10205 22.5977C5.10745 22.5637 5.10745 22.5291 5.10205 22.495C5.10564 22.4609 5.10564 22.4264 5.10205 22.3923L5.15955 22.2896C5.15955 22.2896 5.15955 22.2242 5.20746 22.1962C5.20746 22.1962 5.20746 22.1962 5.20746 22.1495L5.27454 22.0468C5.29113 22.0093 5.31377 21.9746 5.34161 21.9441L5.41827 21.86C5.56538 21.7354 5.73412 21.6374 5.91656 21.5705V21.5705V21.5238L6.05072 21.4118C6.15182 21.3177 6.26447 21.2361 6.3861 21.169L44.8789 -0.514588C44.9425 -0.550003 45.01 -0.578202 45.0801 -0.598633V-0.598633H45.2047H45.3101H45.3868H45.6168H45.7126H45.7797L46.1055 -0.411867L46.278 -0.309145L46.7283 -0.0570107H46.7858H46.7187H46.6613H46.5942H46.5175H46.3642H46.278H46.1821L46.163 -0.066349H46.1055C46.0413 -0.0460632 45.9801 -0.0178161 45.9234 0.0176959V0.0176959L41.7838 2.4083L7.45934 21.7199C7.33924 21.7894 7.22685 21.8707 7.12395 21.9627V21.9627C7.08713 21.9923 7.05486 22.0269 7.02813 22.0655L6.97063 22.1121C6.93036 22.1515 6.89498 22.1954 6.86523 22.2429L6.74065 22.3456C6.712 22.3775 6.68635 22.4119 6.66399 22.4483L6.59692 22.551V22.5977C6.59526 22.632 6.59526 22.6662 6.59692 22.7005C6.57719 22.7296 6.56111 22.761 6.549 22.7938C6.54558 22.8186 6.54558 22.8438 6.549 22.8685V22.8685C6.55066 22.9028 6.55066 22.937 6.549 22.9713C6.549 22.9713 6.549 23.046 6.549 23.0833C6.55312 23.1206 6.55312 23.1581 6.549 23.1954V23.3168V23.4569C6.549 23.5036 6.549 23.5409 6.549 23.5876C6.54438 23.6404 6.54438 23.6935 6.549 23.7463L6.61608 46.8307V51.4158C6.60456 51.574 6.63459 51.7325 6.70333 51.8762C6.77207 52.02 6.87725 52.1444 7.00896 52.2375C5.91656 52.0134 5.1308 51.5839 4.38337 51.1636C4.25626 51.0712 4.1547 50.9494 4.0878 50.8092C4.0209 50.669 3.99075 50.5149 4.00007 50.3605L5.10205 23.3355Z" fill="#004253"/>
<path d="M6.21368 47.0175L6.14661 23.9332C6.14661 23.8398 6.15619 23.7465 6.22327 23.5597C6.26046 23.3442 6.32483 23.1341 6.41492 22.934C6.46283 22.8313 6.56824 22.7286 6.56824 22.6352L6.74072 22.3737C6.79927 22.2919 6.86329 22.2139 6.93237 22.1403L6.98986 22.0936C7.03216 22.0477 7.07694 22.0041 7.12402 21.9628C7.22691 21.8708 7.33931 21.7895 7.45941 21.72L41.7838 2.40841L45.9139 0.129858C46.1103 0.014682 46.3363 -0.0436202 46.5655 -0.0382318C46.6657 -0.0334207 46.7636 -0.00795814 46.853 0.0364748C46.9861 0.130511 47.0922 0.256362 47.161 0.40192C47.2298 0.547477 47.259 0.707842 47.2458 0.867585L47.3225 28.5277C47.2982 28.9227 47.1913 29.3086 47.0084 29.6619C46.8255 30.0152 46.5704 30.3283 46.2588 30.5821C46.1797 30.6434 46.0965 30.6996 46.0097 30.7502L7.52648 52.3404C7.37255 52.4334 7.19884 52.4909 7.01861 52.5085C6.53949 52.5085 6.21368 52.1816 6.21368 51.5746V47.0175Z" fill="#007695"/>
<path d="M44.9843 4.13629C44.9741 4.08188 44.9581 4.02866 44.9364 3.97754C44.9581 4.02866 44.9741 4.08188 44.9843 4.13629Z" fill="white"/>
<path d="M43.8535 3.73455L42.7899 4.34154L9.50036 23.0649C9.16636 23.2786 8.88838 23.5657 8.6887 23.903C8.48901 24.2403 8.37317 24.6185 8.35046 25.0072L8.41754 46.8495V48.0635C8.40652 48.1504 8.40652 48.2382 8.41754 48.325C8.41214 48.2442 8.41214 48.163 8.41754 48.0822V48.0075L42.627 28.7612C43.0146 28.5195 43.3371 28.1907 43.5672 27.8023C43.7973 27.4139 43.9284 26.9774 43.9494 26.5294L43.8823 3.74389C44.3518 3.49176 44.7447 3.58514 44.9172 3.94934C44.7543 3.56646 44.3422 3.46374 43.8535 3.73455Z" fill="#F2C53D"/>
<path d="M8.42712 48.0074L42.6366 28.7611C43.0242 28.5194 43.3466 28.1905 43.5767 27.8021C43.8069 27.4138 43.9379 26.9772 43.959 26.5292L43.8823 3.72507C44.3327 3.46359 44.7543 3.55698 44.9268 3.94919C44.9485 4.00031 44.9645 4.05352 44.9747 4.10794C44.9851 4.19167 44.9851 4.27633 44.9747 4.36007L45.0418 27.4351C45.0209 27.8219 44.9068 28.1985 44.7087 28.5344C44.5106 28.8702 44.234 29.1558 43.9015 29.3681L9.57702 48.7264C9.02124 49.0439 8.56128 48.8571 8.44629 48.3249C8.44089 48.244 8.44089 48.1629 8.44629 48.0821L8.42712 48.0074Z" fill="#00AED6"/>
<path style="mix-blend-mode:overlay" opacity="0.16" d="M46.0191 30.7503L7.60293 52.3685C7.50578 52.4377 7.42599 52.5274 7.36956 52.6309C7.31312 52.7344 7.28152 52.849 7.27713 52.9662V52.9662C7.26781 53.0312 7.26781 53.0972 7.27713 53.1623V53.1623C7.37603 53.3899 7.55186 53.5778 7.77541 53.6946L32.364 67.5993C32.5479 67.7058 32.7487 67.7816 32.9582 67.8234C33.1782 67.8724 33.4032 67.8975 33.6289 67.8982V67.8982C33.8318 67.8948 34.0339 67.873 34.2326 67.8328H34.3764C34.5674 67.7896 34.7513 67.7205 34.9226 67.6273L73.4441 45.9625C73.5188 45.9224 73.5894 45.8755 73.6549 45.8224V45.8224C73.7156 45.7791 73.7676 45.7253 73.8083 45.6636V45.6636C73.8476 45.6086 73.8798 45.549 73.9041 45.4862C74.0191 45.15 73.8466 44.7952 73.3962 44.5524L48.913 30.5729C48.5036 30.3747 48.0526 30.2715 47.5954 30.2715C47.1382 30.2715 46.6872 30.3747 46.2778 30.5729L46.0191 30.7503Z" fill="url(#paint0_linear_104_1580)"/>
<path d="M7.83313 53.6198L14.2151 57.0003C16.352 58.1209 18.4505 59.2882 20.5682 60.4368L26.9023 63.9013L30.0549 65.6569L31.6264 66.5907L32.4218 67.0296C32.6434 67.1725 32.8903 67.2738 33.15 67.3285H33.1021L33.6483 67.3845H34.0125H34.1849H34.2329C34.2329 67.3845 34.1274 67.3845 34.1849 67.3845H34.2808C34.2808 67.3845 34.7503 67.2164 34.7886 67.1791L35.4211 66.8149L37.9221 65.3861C39.5895 64.4336 41.2664 63.4998 42.9529 62.5846L53.0433 56.9816C54.7202 56.0478 56.4259 55.1139 58.1124 54.1801L63.2199 51.2946C64.9064 50.3607 66.6121 49.4829 68.3177 48.5771L73.4252 45.8877V45.9437L53.3499 57.2711L43.2883 62.9395L38.2575 65.741L35.7469 67.1697L35.124 67.5152C34.9027 67.6277 34.6719 67.7214 34.4341 67.7954C34.1849 67.8514 33.955 67.8514 33.7058 67.8888L32.968 67.8141C32.6714 67.7427 32.3895 67.6227 32.1343 67.4592L31.3485 67.011L29.777 66.1238L26.634 64.3682L20.3478 60.8103L7.83313 53.6758V53.6198Z" fill="#007695"/>
<g style="mix-blend-mode:multiply">
<g style="mix-blend-mode:multiply" opacity="0.02">
<path d="M60.6613 41.1438C60.6613 44.7204 54.6148 47.6246 47.1596 47.6246C39.7044 47.6246 33.7058 44.7577 33.7058 41.1438C33.7058 37.5299 39.7044 34.6724 47.1213 34.6724C54.5381 34.6724 60.6613 37.5672 60.6613 41.1438Z" fill="#FCFCFC"/>
</g>
<g style="mix-blend-mode:multiply" opacity="0.04">
<path d="M60.4697 41.1437C60.4697 44.6736 54.5094 47.5591 47.1213 47.5591C39.7332 47.5591 33.8016 44.7016 33.8016 41.1717C33.8016 37.6418 39.8003 34.7656 47.1213 34.7656C54.4423 34.7656 60.4697 37.6231 60.4697 41.1437Z" fill="#F9F9F9"/>
</g>
<g style="mix-blend-mode:multiply" opacity="0.06">
<path d="M60.278 41.1436C60.278 44.6268 54.404 47.4377 47.1596 47.4377C39.9153 47.4377 34.0316 44.6362 34.0316 41.1436C34.0316 37.6511 39.9057 34.8496 47.1596 34.8496C54.4135 34.8496 60.278 37.6698 60.278 41.1436Z" fill="#F6F6F6"/>
</g>
<g style="mix-blend-mode:multiply" opacity="0.08">
<path d="M60.0863 41.1435C60.0863 44.5707 54.3368 47.3535 47.15 47.3535C39.9631 47.3535 34.2136 44.552 34.2136 41.1435C34.2136 37.735 39.9631 34.9429 47.15 34.9429C54.3368 34.9429 60.0863 37.7164 60.0863 41.1435Z" fill="#F3F3F3"/>
</g>
<g style="mix-blend-mode:multiply" opacity="0.1">
<path d="M47.15 47.2605C54.1887 47.2605 59.8947 44.522 59.8947 41.1439C59.8947 37.7658 54.1887 35.0273 47.15 35.0273C40.1113 35.0273 34.4053 37.7658 34.4053 41.1439C34.4053 44.522 40.1113 47.2605 47.15 47.2605Z" fill="#F0F0F0"/>
</g>
<g style="mix-blend-mode:multiply" opacity="0.12">
<path d="M47.1499 47.167C54.0881 47.167 59.7125 44.4703 59.7125 41.1438C59.7125 37.8173 54.0881 35.1206 47.1499 35.1206C40.2118 35.1206 34.5873 37.8173 34.5873 41.1438C34.5873 44.4703 40.2118 47.167 47.1499 47.167Z" fill="#EDEDED"/>
</g>
<g style="mix-blend-mode:multiply" opacity="0.14">
<path d="M47.1499 47.0735C53.9822 47.0735 59.5209 44.4187 59.5209 41.1437C59.5209 37.8687 53.9822 35.2139 47.1499 35.2139C40.3176 35.2139 34.7789 37.8687 34.7789 41.1437C34.7789 44.4187 40.3176 47.0735 47.1499 47.0735Z" fill="#EAEAEA"/>
</g>
<g style="mix-blend-mode:multiply" opacity="0.16">
<path d="M59.3293 41.1436C59.3293 44.3746 53.8769 46.9894 47.15 46.9894C40.4231 46.9894 34.9611 44.3746 34.9611 41.1436C34.9611 37.9125 40.4135 35.3071 47.1212 35.3071C53.829 35.3071 59.3293 37.9219 59.3293 41.1436Z" fill="#E7E7E7"/>
</g>
<g style="mix-blend-mode:multiply" opacity="0.18">
<path d="M59.1377 41.1438C59.1377 44.3282 53.7715 46.8962 47.15 46.8962C40.5285 46.8962 35.1527 44.3282 35.1527 41.1438C35.1527 37.9595 40.5189 35.4194 47.1212 35.4194C53.7236 35.4194 59.1377 37.9688 59.1377 41.1438Z" fill="#E4E4E4"/>
</g>
<g style="mix-blend-mode:multiply" opacity="0.2">
<path d="M47.1403 46.8029C53.6604 46.8029 58.9459 44.2693 58.9459 41.1439C58.9459 38.0185 53.6604 35.4849 47.1403 35.4849C40.6203 35.4849 35.3347 38.0185 35.3347 41.1439C35.3347 44.2693 40.6203 46.8029 47.1403 46.8029Z" fill="#E1E1E1"/>
</g>
<g style="mix-blend-mode:multiply" opacity="0.22">
<path d="M58.7639 41.1435C58.7639 44.2252 53.5606 46.7465 47.1403 46.7465C40.7201 46.7465 35.5264 44.2532 35.5264 41.1435C35.5264 38.0339 40.7297 35.5405 47.1403 35.5405C53.551 35.5405 58.7639 38.0712 58.7639 41.1435Z" fill="#DEDEDE"/>
</g>
<g style="mix-blend-mode:multiply" opacity="0.24">
<path d="M58.6201 41.1437C58.6201 44.1787 53.4552 46.6253 47.1212 46.6253C40.7872 46.6253 35.718 44.1787 35.718 41.1437C35.718 38.1087 40.8351 35.6621 47.1212 35.6621C53.4073 35.6621 58.6201 38.1181 58.6201 41.1437Z" fill="#DBDBDB"/>
</g>
<g style="mix-blend-mode:multiply" opacity="0.25">
<path d="M58.3806 41.1436C58.3806 44.1225 53.3498 46.5411 47.1404 46.5411C40.9309 46.5411 35.9001 44.1225 35.9001 41.1436C35.9001 38.1647 40.9309 35.7554 47.1212 35.7554C53.3115 35.7554 58.3806 38.1647 58.3806 41.1436Z" fill="#D8D8D8"/>
</g>
<g style="mix-blend-mode:multiply" opacity="0.27">
<path d="M47.1404 46.4477C53.2424 46.4477 58.189 44.0729 58.189 41.1435C58.189 38.2141 53.2424 35.8394 47.1404 35.8394C41.0384 35.8394 36.0918 38.2141 36.0918 41.1435C36.0918 44.0729 41.0384 46.4477 47.1404 46.4477Z" fill="#D5D5D5"/>
</g>
<g style="mix-blend-mode:multiply" opacity="0.29">
<path d="M47.1403 46.3547C53.1418 46.3547 58.0069 44.0217 58.0069 41.1439C58.0069 38.2661 53.1418 35.9331 47.1403 35.9331C41.1389 35.9331 36.2738 38.2661 36.2738 41.1439C36.2738 44.0217 41.1389 46.3547 47.1403 46.3547Z" fill="#D2D2D2"/>
</g>
<g style="mix-blend-mode:multiply" opacity="0.31">
<path d="M47.1403 46.2612C53.0359 46.2612 57.8152 43.97 57.8152 41.1438C57.8152 38.3175 53.0359 36.0264 47.1403 36.0264C41.2448 36.0264 36.4655 38.3175 36.4655 41.1438C36.4655 43.97 41.2448 46.2612 47.1403 46.2612Z" fill="#CFCFCF"/>
</g>
<g style="mix-blend-mode:multiply" opacity="0.33">
<path d="M57.6619 41.1436C57.6619 43.9451 52.9665 46.177 47.1212 46.177C41.2759 46.177 36.6379 43.9264 36.6379 41.1436C36.6379 38.3608 41.3717 36.1196 47.1212 36.1196C52.8707 36.1196 57.6619 38.3702 57.6619 41.1436Z" fill="#CCCCCC"/>
</g>
<g style="mix-blend-mode:multiply" opacity="0.35">
<path d="M47.1308 46.0835C52.8199 46.0835 57.4319 43.8719 57.4319 41.1436C57.4319 38.4153 52.8199 36.2036 47.1308 36.2036C41.4416 36.2036 36.8296 38.4153 36.8296 41.1436C36.8296 43.8719 41.4416 46.0835 47.1308 46.0835Z" fill="#C9C9C9"/>
</g>
<g style="mix-blend-mode:multiply" opacity="0.37">
<path d="M57.2403 41.144C57.2403 43.8241 52.7173 45.9999 47.1308 45.9999C41.5442 45.9999 37.0212 43.8241 37.0212 41.144C37.0212 38.4639 41.5442 36.2974 47.1212 36.2974C52.6982 36.2974 57.2403 38.4732 57.2403 41.144Z" fill="#C6C6C6"/>
</g>
<g style="mix-blend-mode:multiply" opacity="0.39">
<path d="M57.0486 41.1436C57.0486 43.777 52.6119 45.9061 47.1308 45.9061C41.6496 45.9061 37.2129 43.8237 37.2129 41.1436C37.2129 38.4635 41.6496 36.353 47.1212 36.353C52.5928 36.353 57.0486 38.5195 57.0486 41.1436Z" fill="#C3C3C3"/>
</g>
<g style="mix-blend-mode:multiply" opacity="0.41">
<path d="M56.857 41.1438C56.857 43.7211 52.5066 45.8129 47.1308 45.8129C41.755 45.8129 37.395 43.7211 37.395 41.1438C37.395 38.5664 41.755 36.4746 47.1308 36.4746C52.5066 36.4746 56.857 38.5664 56.857 41.1438Z" fill="#C0C0C0"/>
</g>
<g style="mix-blend-mode:multiply" opacity="0.43">
<path d="M47.1308 45.7194C52.4019 45.7194 56.675 43.6708 56.675 41.1436C56.675 38.6165 52.4019 36.5679 47.1308 36.5679C41.8597 36.5679 37.5867 38.6165 37.5867 41.1436C37.5867 43.6708 41.8597 45.7194 47.1308 45.7194Z" fill="#BDBDBD"/>
</g>
<g style="mix-blend-mode:multiply" opacity="0.45">
<path d="M47.1212 45.6259C52.2864 45.6259 56.4737 43.6191 56.4737 41.1435C56.4737 38.668 52.2864 36.6611 47.1212 36.6611C41.9559 36.6611 37.7687 38.668 37.7687 41.1435C37.7687 43.6191 41.9559 45.6259 47.1212 45.6259Z" fill="#BABABA"/>
</g>
<g style="mix-blend-mode:multiply" opacity="0.47">
<path d="M56.2916 41.1439C56.2916 43.5719 52.1903 45.5422 47.1212 45.5422C42.052 45.5422 37.9603 43.5719 37.9603 41.1439C37.9603 38.7159 42.0616 36.7549 47.1212 36.7549C52.1807 36.7549 56.2916 38.7159 56.2916 41.1439Z" fill="#B7B7B7"/>
</g>
<g style="mix-blend-mode:multiply" opacity="0.49">
<path d="M56.1 41.1438C56.1 43.5251 52.085 45.4488 47.1212 45.4488C42.1575 45.4488 38.1425 43.5251 38.1425 41.1438C38.1425 38.7626 42.1671 36.8389 47.1212 36.8389C52.0754 36.8389 56.1 38.7719 56.1 41.1438Z" fill="#B4B4B4"/>
</g>
<g style="mix-blend-mode:multiply" opacity="0.51">
<path d="M55.9084 41.1437C55.9084 43.4783 51.9796 45.3646 47.1212 45.3646C42.2629 45.3646 38.3341 43.497 38.3341 41.1437C38.3341 38.7905 42.2629 36.9321 47.1212 36.9321C51.9796 36.9321 55.9084 38.8185 55.9084 41.1437Z" fill="#B1B1B1"/>
</g>
<g style="mix-blend-mode:multiply" opacity="0.53">
<path d="M55.7454 41.1436C55.7454 43.4221 51.9124 45.2711 47.1212 45.2711C42.3299 45.2711 38.4969 43.4035 38.4969 41.1436C38.4969 38.8837 42.3299 37.0254 47.1212 37.0254C51.9124 37.0254 55.7454 38.865 55.7454 41.1436Z" fill="#AEAEAE"/>
</g>
<g style="mix-blend-mode:multiply" opacity="0.55">
<path d="M55.5346 41.1435C55.5346 43.3754 51.7687 45.1777 47.1212 45.1777C42.4737 45.1777 38.7078 43.3754 38.7078 41.1435C38.7078 38.9117 42.4737 37.1094 47.1212 37.1094C51.7687 37.1094 55.5346 38.921 55.5346 41.1435Z" fill="#ABABAB"/>
</g>
<g style="mix-blend-mode:multiply" opacity="0.57">
<path d="M55.343 41.1439C55.343 43.329 51.6633 45.094 47.1212 45.094C42.5791 45.094 38.8899 43.329 38.8899 41.1439C38.8899 38.9587 42.5791 37.2031 47.1212 37.2031C51.6633 37.2031 55.343 38.9681 55.343 41.1439Z" fill="#A8A8A8"/>
</g>
<g style="mix-blend-mode:multiply" opacity="0.59">
<path d="M55.1514 41.1438C55.1514 43.273 51.5579 45.0006 47.1117 45.0006C42.6654 45.0006 39.0815 43.273 39.0815 41.1438C39.0815 39.0147 42.675 37.2871 47.1212 37.2871C51.5675 37.2871 55.1514 39.0147 55.1514 41.1438Z" fill="#A5A5A5"/>
</g>
<g style="mix-blend-mode:multiply" opacity="0.61">
<path d="M47.1116 44.9071C51.446 44.9071 54.9597 43.2222 54.9597 41.1437C54.9597 39.0653 51.446 37.3804 47.1116 37.3804C42.7772 37.3804 39.2635 39.0653 39.2635 41.1437C39.2635 43.2222 42.7772 44.9071 47.1116 44.9071Z" fill="#A2A2A2"/>
</g>
<g style="mix-blend-mode:multiply" opacity="0.63">
<path d="M47.1116 44.8135C51.3401 44.8135 54.768 43.1705 54.768 41.1436C54.768 39.1167 51.3401 37.4736 47.1116 37.4736C42.8831 37.4736 39.4552 39.1167 39.4552 41.1436C39.4552 43.1705 42.8831 44.8135 47.1116 44.8135Z" fill="#9F9F9F"/>
</g>
<g style="mix-blend-mode:multiply" opacity="0.65">
<path d="M54.5764 41.144C54.5764 43.1237 51.2321 44.7579 47.1212 44.7579C43.0103 44.7579 39.6469 43.1517 39.6469 41.172C39.6469 39.1923 42.9816 37.5674 47.1212 37.5674C51.2608 37.5674 54.5764 39.1549 54.5764 41.144Z" fill="#9C9C9C"/>
</g>
<g style="mix-blend-mode:multiply" opacity="0.67">
<path d="M47.1117 44.6364C51.1338 44.6364 54.3943 43.0728 54.3943 41.1439C54.3943 39.215 51.1338 37.6514 47.1117 37.6514C43.0896 37.6514 39.829 39.215 39.829 41.1439C39.829 43.0728 43.0896 44.6364 47.1117 44.6364Z" fill="#999999"/>
</g>
<g style="mix-blend-mode:multiply" opacity="0.69">
<path d="M54.2026 41.1438C54.2026 43.0114 51.0213 44.5523 47.1116 44.5523C43.202 44.5523 40.011 43.0301 40.011 41.1438C40.011 39.2574 43.1924 37.7446 47.1212 37.7446C51.05 37.7446 54.2026 39.2668 54.2026 41.1438Z" fill="#969696"/>
</g>
<g style="mix-blend-mode:multiply" opacity="0.71">
<path d="M54.011 41.1437C54.011 43.0113 50.9159 44.4588 47.102 44.4588C43.2882 44.4588 40.2026 42.974 40.2026 41.1437C40.2026 39.3133 43.2882 37.8379 47.1212 37.8379C50.9542 37.8379 54.011 39.3133 54.011 41.1437Z" fill="#939393"/>
</g>
<g style="mix-blend-mode:multiply" opacity="0.73">
<path d="M53.8289 41.1436C53.8289 42.9272 50.82 44.3653 47.1212 44.3653C43.4224 44.3653 40.4135 42.8899 40.4135 41.1436C40.4135 39.3973 43.4224 37.9219 47.1212 37.9219C50.82 37.9219 53.8289 39.3693 53.8289 41.1436Z" fill="#909090"/>
</g>
<g style="mix-blend-mode:multiply" opacity="0.75">
<path d="M47.1021 44.2723C50.7061 44.2723 53.6278 42.8717 53.6278 41.144C53.6278 39.4162 50.7061 38.0156 47.1021 38.0156C43.4981 38.0156 40.5764 39.4162 40.5764 41.144C40.5764 42.8717 43.4981 44.2723 47.1021 44.2723Z" fill="#8D8D8D"/>
</g>
<g style="mix-blend-mode:multiply" opacity="0.76">
<path d="M53.4456 41.1438C53.4456 42.8247 50.5709 44.1881 47.102 44.1881C43.6332 44.1881 40.7584 42.8247 40.7584 41.1438C40.7584 39.4629 43.6332 38.1089 47.102 38.1089C50.5709 38.1089 53.4456 39.4723 53.4456 41.1438Z" fill="#8A8A8A"/>
</g>
<g style="mix-blend-mode:multiply" opacity="0.78">
<path d="M53.254 41.1436C53.254 42.7778 50.4942 44.0945 47.102 44.0945C43.7098 44.0945 40.9501 42.7778 40.9501 41.1436C40.9501 39.5094 43.7002 38.2207 47.1212 38.2207C50.5421 38.2207 53.254 39.5187 53.254 41.1436Z" fill="#878787"/>
</g>
<g style="mix-blend-mode:multiply" opacity="0.8">
<path d="M53.0624 41.1436C53.0624 42.7218 50.3889 44.0105 47.1021 44.0105C43.8153 44.0105 41.1322 42.7218 41.1322 41.1436C41.1322 39.5655 43.8057 38.2861 47.1021 38.2861C50.3985 38.2861 53.0624 39.5655 53.0624 41.1436Z" fill="#848484"/>
</g>
<g style="mix-blend-mode:multiply" opacity="0.82">
<path d="M52.8707 41.1438C52.8707 42.6753 50.2834 43.9453 47.1212 43.9453C43.959 43.9453 41.3717 42.7033 41.3717 41.1438C41.3717 39.5843 43.959 38.3423 47.1212 38.3423C50.2834 38.3423 52.8707 39.6216 52.8707 41.1438Z" fill="#818181"/>
</g>
<g style="mix-blend-mode:multiply" opacity="0.84">
<path d="M52.679 41.144C52.679 42.6288 50.178 43.8241 47.1212 43.8241C44.0644 43.8241 41.5442 42.6288 41.5442 41.144C41.5442 39.6592 44.0356 38.4639 47.1212 38.4639C50.2068 38.4639 52.679 39.6685 52.679 41.144Z" fill="#7E7E7E"/>
</g>
<g style="mix-blend-mode:multiply" opacity="0.86">
<path d="M52.4874 41.1438C52.4874 42.5726 50.0726 43.7399 47.0924 43.7399C44.1123 43.7399 41.6975 42.5726 41.6975 41.1438C41.6975 39.7151 44.1123 38.5571 47.0924 38.5571C50.0726 38.5571 52.4874 39.7151 52.4874 41.1438Z" fill="#7B7B7B"/>
</g>
<g style="mix-blend-mode:multiply" opacity="0.88">
<path d="M52.3053 41.1437C52.3053 42.5258 49.9672 43.6464 47.0924 43.6464C44.2177 43.6464 41.8892 42.5258 41.8892 41.1437C41.8892 39.7616 44.2464 38.6504 47.1212 38.6504C49.9959 38.6504 52.3053 39.771 52.3053 41.1437Z" fill="#787878"/>
</g>
<g style="mix-blend-mode:multiply" opacity="0.9">
<path d="M52.1137 41.1436C52.1137 42.479 49.8618 43.5529 47.0925 43.5529C44.3232 43.5529 42.0713 42.479 42.0713 41.1436C42.0713 39.8082 44.3232 38.7437 47.0925 38.7437C49.8618 38.7437 52.1137 39.8176 52.1137 41.1436Z" fill="#757575"/>
</g>
<g style="mix-blend-mode:multiply" opacity="0.92">
<path d="M51.9124 41.1435C51.9124 42.4229 49.7468 43.4594 47.1212 43.4594C44.4956 43.4594 42.33 42.4229 42.33 41.1435C42.33 39.8642 44.486 38.8276 47.1212 38.8276C49.7564 38.8276 51.9124 39.8642 51.9124 41.1435Z" fill="#727272"/>
</g>
<g style="mix-blend-mode:multiply" opacity="0.94">
<path d="M47.0925 43.3664C49.6592 43.3664 51.74 42.3714 51.74 41.1439C51.74 39.9164 49.6592 38.9214 47.0925 38.9214C44.5257 38.9214 42.4449 39.9164 42.4449 41.1439C42.4449 42.3714 44.5257 43.3664 47.0925 43.3664Z" fill="#6F6F6F"/>
</g>
<g style="mix-blend-mode:multiply" opacity="0.96">
<path d="M51.5387 41.1438C51.5387 42.3298 49.5456 43.2823 47.0829 43.2823C44.6202 43.2823 42.6366 42.3484 42.6366 41.1438C42.6366 39.9391 44.6298 39.0146 47.1212 39.0146C49.6126 39.0146 51.5387 39.9672 51.5387 41.1438Z" fill="#6C6C6C"/>
</g>
<g style="mix-blend-mode:multiply" opacity="0.98">
<path d="M51.3567 41.1437C51.3567 42.2737 49.4402 43.1888 47.0829 43.1888C44.7256 43.1888 42.8187 42.255 42.8187 41.1437C42.8187 40.0325 44.7352 39.0986 47.0829 39.0986C49.4306 39.0986 51.3567 40.0138 51.3567 41.1437Z" fill="#696969"/>
</g>
<g style="mix-blend-mode:multiply">
<path d="M51.1651 41.1438C51.1651 42.2271 49.3348 43.1049 47.0829 43.1049C44.831 43.1049 43.0104 42.2271 43.0104 41.1438C43.0104 40.0606 44.831 39.1548 47.1213 39.1548C49.4115 39.1548 51.1651 40.0886 51.1651 41.1438Z" fill="#666666"/>
</g>
</g>
<path d="M41.0746 38.2957L50.2642 38.0342L41.0746 38.2957Z" fill="#21BFA2"/>
<path d="M41.0746 38.2954C40.9945 38.2961 40.9157 38.3153 40.8446 38.3514C40.9157 38.3153 40.9945 38.2961 41.0746 38.2954V38.2954Z" fill="#21BFA2"/>
<path d="M40.7488 38.4356C40.7735 38.4007 40.8063 38.3719 40.8446 38.3516C40.8063 38.3719 40.7735 38.4007 40.7488 38.4356V38.4356Z" fill="#21BFA2"/>
<path d="M40.7466 38.4355C40.7355 38.4717 40.7355 38.5115 40.7466 38.5476C40.7355 38.5115 40.7355 38.4717 40.7466 38.4355V38.4355Z" fill="#21BFA2"/>
<path d="M52.2957 38.3141C52.2957 38.3141 52.2957 38.3141 52.2957 38.3795C52.2782 38.4651 52.2458 38.5472 52.1999 38.6223C52.1197 38.7434 52.0193 38.8507 51.9028 38.9398L50.9446 39.6681L51.9028 39.8642L52.2286 39.9296C52.2765 39.8334 52.3027 39.7283 52.3053 39.6214V38.2207C52.3053 38.2207 52.2957 38.2954 52.2957 38.3141Z" fill="#198F7A"/>
<path d="M48.4818 39.9579L48.5393 39.9019L48.4818 39.9579Z" fill="#A6E5DA"/>
<path d="M48.4723 39.9949L48.4799 39.9575L48.4723 39.9949Z" fill="#7AD9C7"/>
<path d="M48.4818 39.9575L48.5393 39.9015L50.5804 38.3793L50.6475 38.3233C50.6568 38.3043 50.6617 38.2836 50.6617 38.2626C50.6617 38.2416 50.6568 38.2208 50.6475 38.2019C50.6256 38.1567 50.5884 38.1204 50.5421 38.0992C50.4567 38.0545 50.361 38.032 50.2642 38.0338L41.0746 38.2953C40.9945 38.296 40.9157 38.3152 40.8446 38.3513C40.8063 38.3716 40.7735 38.4004 40.7488 38.4353L48.4818 39.9575Z" fill="#A6E5DA"/>
<path d="M54.9692 40.5273C54.8652 40.4687 54.7518 40.4276 54.6338 40.4059L52.219 39.9296L51.9124 39.8643L50.9541 39.6682L51.9124 38.9398C52.0288 38.8508 52.1292 38.7435 52.2094 38.6223C52.2554 38.5473 52.2878 38.4651 52.3053 38.3795C52.3053 38.3795 52.3053 38.3795 52.3053 38.3141C52.3127 38.1659 52.2793 38.0185 52.2085 37.8871C52.1378 37.7557 52.0322 37.6452 51.9028 37.567L51.7207 37.4457C51.2482 37.2061 50.7198 37.0903 50.1875 37.1095L40.9979 37.3709C40.6594 37.3522 40.3211 37.4108 40.01 37.5422C39.6988 37.6735 39.4235 37.8739 39.206 38.1274C39.1464 38.2179 39.1092 38.3208 39.0976 38.4278C39.0859 38.5348 39.1001 38.643 39.1389 38.7437V38.7997C39.1778 38.8789 39.2296 38.9514 39.2922 39.0145L39.3497 39.0799C39.442 39.1694 39.5449 39.2478 39.6564 39.3133H39.7522L46.6803 42.7405C47.2542 43.0011 47.8948 43.0888 48.5202 42.9926C48.7916 42.9743 49.0558 42.8998 49.2954 42.7742C49.535 42.6486 49.7444 42.4748 49.9096 42.2642C49.9793 42.1578 50.0189 42.0354 50.0246 41.9094V40.9755L53.8289 41.7693C54.0298 41.8235 54.242 41.8234 54.4428 41.7691C54.6437 41.7148 54.8256 41.6084 54.9692 41.4611L55.2183 41.0502C55.2309 41.0012 55.2309 40.9499 55.2183 40.9008C55.2138 40.8228 55.1885 40.7473 55.1448 40.6818C55.1011 40.6162 55.0405 40.563 54.9692 40.5273V40.5273ZM48.5393 39.9016L48.4818 39.9577V40.023L48.4244 41.8907V41.9561C48.4022 41.9931 48.3687 42.0225 48.3285 42.0401C48.2549 42.0784 48.1724 42.0977 48.089 42.0961C48.0002 42.0996 47.9118 42.0837 47.8302 42.0494L40.9021 38.6129C40.8606 38.5885 40.8273 38.5528 40.8063 38.5102C40.7923 38.4741 40.7923 38.4343 40.8063 38.3982C40.831 38.3632 40.8638 38.3344 40.9021 38.3141C40.9732 38.278 41.052 38.2588 41.1321 38.2581L50.3217 37.9966C50.4185 37.9948 50.5142 38.0174 50.5996 38.062C50.6459 38.0833 50.6832 38.1196 50.705 38.1647C50.7143 38.1836 50.7192 38.2044 50.7192 38.2254C50.7192 38.2464 50.7143 38.2672 50.705 38.2861L50.6379 38.3421L48.5393 39.9016Z" fill="#21BFA2"/>
<path d="M40.7488 38.4355C40.7348 38.4717 40.7348 38.5115 40.7488 38.5476C40.7698 38.5902 40.8031 38.6259 40.8446 38.6503V38.6503L47.7727 42.0868C47.8543 42.121 47.9427 42.137 48.0314 42.1335C48.1149 42.1351 48.1974 42.1158 48.271 42.0775C48.3112 42.0599 48.3447 42.0305 48.3668 41.9934V41.9281L48.4243 40.0604V39.995L40.7488 38.4355Z" fill="#7AD9C7"/>
<path d="M55.2374 40.9006C55.25 40.9497 55.25 41.001 55.2374 41.05L54.9883 41.4609C54.843 41.6115 54.6578 41.72 54.4532 41.7744C54.2485 41.8288 54.0324 41.8269 53.8288 41.7691L50.0725 41.022V41.9558C50.0668 42.0819 50.0271 42.2043 49.9575 42.3107C49.7922 42.5213 49.5828 42.6951 49.3432 42.8207C49.1037 42.9463 48.8394 43.0207 48.568 43.0391C47.9427 43.1353 47.3021 43.0475 46.7282 42.787L39.8001 39.3598H39.7042C39.5928 39.2943 39.4898 39.2159 39.3976 39.1263L39.3401 39.061C39.2774 38.9979 39.2256 38.9254 39.1868 38.8462V38.7902C39.1723 38.7098 39.1723 38.6277 39.1868 38.5474V39.9201C39.1986 40.0948 39.2606 40.2627 39.3656 40.4047C39.4707 40.5467 39.6146 40.6571 39.7809 40.7232L39.8767 40.7792L46.7953 44.2064C47.375 44.4587 48.0171 44.543 48.6447 44.4492C48.9161 44.4308 49.1803 44.3564 49.4199 44.2308C49.6595 44.1052 49.8689 43.9313 50.0342 43.7208C50.0994 43.6158 50.1387 43.4976 50.1491 43.3753V42.4414L53.8671 43.1792C54.068 43.2344 54.2805 43.2349 54.4815 43.1805C54.6826 43.1262 54.8645 43.0191 55.0075 42.871L55.2662 42.4601C55.279 42.4048 55.279 42.3474 55.2662 42.292V40.8913L55.2374 40.9006Z" fill="#198F7A"/>
<path d="M40.9787 1.68947V0.41012C40.9767 0.162829 40.9084 -0.0796594 40.7806 -0.293323C40.6529 -0.506986 40.47 -0.684409 40.2502 -0.808017C40.0304 -0.931625 39.7813 -0.997128 39.5276 -0.998037C39.2738 -0.998946 39.0242 -0.93523 38.8035 -0.813199L14.119 13.0822C13.5298 13.4137 13.0418 13.892 12.705 14.468C12.3682 15.044 12.1947 15.697 12.2025 16.36V17.9008V45.9157L12.7871 46.3173L41.0266 29.6764L40.9787 1.68947Z" fill="#198F7A"/>
<path d="M12.8063 46.2799L41.6017 30.0779V2.06299L12.7584 18.293L12.8063 46.2799Z" fill="#D3F2EC"/>
<path d="M41.5634 2.09092V0.811566C41.5653 0.561792 41.499 0.316013 41.3715 0.099369C41.2439 -0.117275 41.0595 -0.297008 40.8373 -0.421445C40.6151 -0.545882 40.3629 -0.610557 40.1066 -0.608854C39.8503 -0.607151 39.599 -0.539132 39.3786 -0.411753L14.6941 13.4837C14.1063 13.8143 13.6192 14.2912 13.2825 14.8654C12.9458 15.4396 12.7715 16.0907 12.7776 16.7521V18.2929L41.5634 2.09092Z" fill="#21BFA2"/>
<path d="M40.2218 7.94622L15.2402 22.0844V21.1973L40.2218 7.05908V7.94622Z" fill="#21BFA2"/>
<path d="M40.2218 6.21868L15.2402 20.3569V19.4697L40.2218 5.33154V6.21868Z" fill="#21BFA2"/>
<path d="M36.9158 16.584L19.4182 26.4266V35.7649L36.9446 25.9036L36.9158 16.584ZM23.6058 27.8927L23.4812 28.1915C23.2427 28.742 23.0504 29.3103 22.9062 29.8911C22.8069 30.3423 22.7555 30.8023 22.7529 31.2638V31.4319C22.7361 31.6694 22.6634 31.8999 22.5404 32.1055C22.4174 32.3112 22.2475 32.4865 22.0438 32.6179C21.6413 32.842 21.3155 32.6646 21.3155 32.2163V31.9548C21.3143 31.5738 21.3626 31.1941 21.4593 30.8249C21.57 30.4211 21.7241 30.0298 21.9192 29.6576C22.0246 29.4522 22.2259 29.116 22.5229 28.6584C22.82 28.2008 23.05 27.818 23.1937 27.5378L22.8871 27.8367C22.7902 27.9152 22.6877 27.987 22.5804 28.0514C22.4095 28.1456 22.2299 28.2238 22.0438 28.2849C21.9111 28.3216 21.7826 28.3716 21.6605 28.4343C21.4762 28.5353 21.3313 28.6929 21.2485 28.8825C21.1642 29.0936 21.1251 29.3192 21.1335 29.5456V29.8164L20.3477 30.2553V28.0328L21.1431 27.5845V28.0701C21.2312 27.8419 21.3539 27.6278 21.5072 27.4351C21.6522 27.2571 21.8312 27.1081 22.0342 26.9962C22.2731 26.8624 22.537 26.7767 22.8104 26.7441C22.993 26.7323 23.1734 26.6977 23.347 26.6413C23.4154 26.6009 23.4742 26.5468 23.5195 26.4826C23.5577 26.4171 23.5775 26.3431 23.577 26.2678V26.2118L24.1807 25.8756V26.025C24.0859 26.6721 23.8921 27.3016 23.6058 27.8927V27.8927ZM24.9569 31.3572V24.6243L25.4743 24.3254V31.0584L24.9569 31.3572ZM29.5852 24.5309C29.5373 24.6523 29.4894 24.755 29.4606 24.8204C29.2277 25.376 29.0355 25.9471 28.8857 26.5293C28.7806 26.9953 28.7324 27.4717 28.742 27.9487V28.1168C28.7266 28.3619 28.6527 28.6 28.5263 28.8124C28.3999 29.0248 28.2244 29.2055 28.0137 29.3401C27.6112 29.5642 27.2854 29.3401 27.2854 28.9292V28.6771C27.281 28.2964 27.3261 27.9168 27.4196 27.5472C27.5303 27.1434 27.6844 26.7521 27.8795 26.3799C27.9818 26.1744 28.183 25.8383 28.4832 25.3713C28.7899 24.9044 29.0103 24.5309 29.154 24.2601C29.0617 24.366 28.959 24.463 28.8474 24.5496C28.7522 24.6302 28.6495 24.7021 28.5407 24.7643C28.3732 24.8585 28.1967 24.9367 28.0137 24.9978L27.6304 25.1472C27.4583 25.2362 27.3205 25.377 27.2375 25.5488C27.1524 25.7596 27.1133 25.9854 27.1225 26.2118V26.4733L26.3272 26.9215V24.6616L27.1225 24.2227V24.699C27.2128 24.4718 27.3354 24.258 27.4867 24.064C27.6342 23.8884 27.8127 23.7398 28.0137 23.6251C28.2531 23.4943 28.5171 23.4118 28.7899 23.3823C28.9733 23.3702 29.1541 23.3325 29.3265 23.2702C29.3991 23.2354 29.4592 23.1801 29.499 23.1115C29.5368 23.0493 29.5566 22.9783 29.5565 22.906V22.85L30.1698 22.5138V22.6539C30.0746 23.305 29.8775 23.9381 29.5852 24.5309V24.5309ZM30.9364 27.9487V21.2158L31.4634 20.9263V27.6592L30.9364 27.9487ZM35.6222 21.1504C35.5743 21.2812 35.5264 21.3839 35.4976 21.4492C35.2635 22.0013 35.0713 22.5693 34.9227 23.1488C34.8218 23.5996 34.7736 24.0602 34.7789 24.5216V24.699C34.7651 24.9431 34.6918 25.1806 34.5652 25.3917C34.4386 25.6027 34.2622 25.7814 34.0507 25.913C33.6578 26.1371 33.332 25.9596 33.332 25.5114V25.2593C33.3276 24.8755 33.3727 24.4928 33.4661 24.12C33.5768 23.7162 33.731 23.3249 33.9261 22.9527C34.0315 22.7566 34.2327 22.4111 34.5394 21.9442C34.846 21.4773 35.0568 21.1131 35.2006 20.8329C35.1057 20.9394 35.0032 21.0393 34.8939 21.1317C34.7987 21.2124 34.6961 21.2843 34.5873 21.3465C34.4197 21.4407 34.2432 21.5189 34.0602 21.58C33.9269 21.6148 33.7982 21.665 33.6769 21.7294C33.5073 21.8214 33.3703 21.9614 33.2841 22.1309C33.1986 22.3384 33.1595 22.5613 33.1691 22.7846V23.0554L32.3737 23.4943V21.2905L33.1691 20.8423V21.3278C33.2572 21.0996 33.3799 20.8856 33.5332 20.6928C33.6805 20.5145 33.8589 20.3627 34.0602 20.2446C34.3016 20.1181 34.5646 20.0358 34.8364 20.0018C35.0192 19.9912 35.1997 19.9566 35.373 19.8991C35.4435 19.8614 35.5029 19.8068 35.5455 19.7403C35.5878 19.6766 35.6079 19.6013 35.603 19.5256V19.4789L36.2163 19.1333V19.2734C36.1195 19.9254 35.9191 20.5586 35.6222 21.1504V21.1504Z" fill="#F9F132"/>
<path d="M36.9542 27.6781L38.5449 26.7442V24.97V15.6316V13.9414L36.9542 14.8752L19.4087 24.6525L17.818 25.5863V25.9318V38.4638L19.4087 37.53L36.9542 27.6781ZM19.4183 26.4267L36.9159 16.5841V25.9225L19.447 35.7464L19.4183 26.4267Z" fill="#E8630B"/>
<path d="M24.1903 25.876L23.5866 26.2122V26.2682C23.5871 26.3435 23.5672 26.4175 23.5291 26.483C23.4838 26.5472 23.425 26.6013 23.3566 26.6417C23.183 26.6981 23.0026 26.7326 22.82 26.7444C22.5466 26.7771 22.2826 26.8628 22.0438 26.9966C21.8408 27.1084 21.6618 27.2575 21.5168 27.4355C21.3635 27.6282 21.2407 27.8422 21.1526 28.0705V27.5849L20.3573 28.0331V30.237L21.1526 29.8167V29.5459C21.1381 29.3209 21.1707 29.0953 21.2485 28.8829C21.3337 28.7181 21.467 28.5817 21.6318 28.4907C21.7539 28.428 21.8823 28.378 22.0151 28.3413C22.2011 28.2802 22.3808 28.202 22.5517 28.1078C22.659 28.0434 22.7614 27.9716 22.8583 27.8931L23.165 27.5755C23.0212 27.8557 22.7912 28.2199 22.4942 28.6961C22.1971 29.1724 21.9959 29.4899 21.8905 29.6953C21.6954 30.0676 21.5412 30.4588 21.4305 30.8626C21.3338 31.2318 21.2855 31.6115 21.2868 31.9926V32.254C21.2868 32.7023 21.6126 32.8797 22.0151 32.6556C22.2255 32.5215 22.4004 32.3408 22.5254 32.1281C22.6503 31.9155 22.7217 31.677 22.7338 31.4323V31.2642C22.7363 30.8027 22.7877 30.3427 22.8871 29.8915C23.0313 29.3107 23.2236 28.7423 23.462 28.1919L23.5866 27.8931C23.8796 27.303 24.0799 26.6735 24.1807 26.0254V25.876H24.1903Z" fill="#F2460B"/>
<path d="M24.9377 24.6245L24.9569 31.3574L25.4744 31.0586L25.4552 24.3257L24.9377 24.6245Z" fill="white"/>
<path d="M30.1794 22.5142L29.5661 22.8503V22.9064C29.5662 22.9786 29.5464 23.0496 29.5086 23.1118C29.4688 23.1804 29.4087 23.2357 29.3361 23.2706C29.1637 23.3328 28.983 23.3706 28.7995 23.3826C28.5267 23.4121 28.2628 23.4947 28.0233 23.6254C27.8223 23.7401 27.6439 23.8887 27.4963 24.0643C27.345 24.2584 27.2224 24.4721 27.1321 24.6993V24.2137L26.3368 24.6526V26.8658L27.1321 26.4176V26.1561C27.1229 25.9297 27.1621 25.7039 27.2471 25.4931C27.3301 25.3214 27.4679 25.1805 27.64 25.0915L28.0233 24.9421C28.2063 24.881 28.3828 24.8029 28.5503 24.7087C28.6592 24.6465 28.7618 24.5746 28.857 24.4939C28.9686 24.4073 29.0713 24.3103 29.1636 24.2044C29.0199 24.4752 28.7995 24.8487 28.4928 25.3157C28.1862 25.7826 27.9946 26.1187 27.8892 26.3242C27.694 26.6964 27.5399 27.0877 27.4292 27.4915C27.3357 27.8611 27.2906 28.2408 27.295 28.6214V28.8829C27.295 29.3311 27.6208 29.5179 28.0233 29.2938C28.234 29.1591 28.4095 28.9784 28.5359 28.7661C28.6624 28.5537 28.7362 28.3155 28.7516 28.0705V27.9491C28.7483 27.4713 28.803 26.9949 28.9145 26.5296C29.0643 25.9474 29.2565 25.3764 29.4894 24.8207C29.4894 24.7554 29.5661 24.6526 29.614 24.5312C29.912 23.9424 30.1156 23.3125 30.2177 22.6636V22.5235L30.1794 22.5142Z" fill="#F2460B"/>
<path d="M30.9172 21.2534L30.9364 27.9863L31.4634 27.6968L31.4443 20.9639L30.9172 21.2534Z" fill="white"/>
<path d="M36.1779 19.1338L35.5646 19.4793V19.5447C35.5695 19.6204 35.5494 19.6957 35.5071 19.7595C35.4645 19.8259 35.4051 19.8806 35.3346 19.9182C35.1613 19.9758 34.9808 20.0103 34.798 20.0209C34.5262 20.055 34.2632 20.1373 34.0218 20.2637C33.8205 20.3819 33.6421 20.5336 33.4948 20.712C33.3415 20.9047 33.2188 21.1187 33.1307 21.347V20.8614L32.3353 21.3096V23.5135L33.1307 23.0746V22.8037C33.1211 22.5804 33.1603 22.3576 33.2457 22.1501C33.3319 21.9805 33.4689 21.8405 33.6385 21.7485C33.7598 21.6841 33.8885 21.6339 34.0218 21.5991C34.2048 21.538 34.3813 21.4598 34.5489 21.3656C34.6577 21.3034 34.7603 21.2315 34.8555 21.1509C34.9648 21.0584 35.0673 20.9585 35.1622 20.852C35.0184 21.1322 34.798 21.4964 34.501 21.9633C34.2039 22.4302 33.9931 22.7757 33.8877 22.9718C33.6926 23.344 33.5384 23.7353 33.4277 24.1391C33.3343 24.5119 33.2892 24.8947 33.2936 25.2784V25.5305C33.2936 25.9788 33.6194 26.1562 34.0123 25.9321C34.2238 25.8006 34.4002 25.6219 34.5268 25.4108C34.6534 25.1997 34.7267 24.9622 34.7405 24.7181V24.5407C34.7352 24.0793 34.7834 23.6188 34.8843 23.1679C35.0329 22.5884 35.2251 22.0204 35.4592 21.4684C35.4592 21.403 35.5359 21.3003 35.5838 21.1695C35.883 20.5812 36.0867 19.9511 36.1875 19.3019V19.1618L36.1779 19.1338Z" fill="#F2460B"/>
<path d="M38.5448 28.5654L17.8658 40.201V41.9846L38.5544 30.3397L38.5448 28.5654Z" fill="#198F7A"/>
<path d="M38.4969 10.3462L17.8083 21.9911L17.8179 23.7654L38.4969 12.1298V10.3462Z" fill="#198F7A"/>
</g>
<defs>
<filter id="filter0_d_104_1580" x="0" y="0" width="78" height="78" filterUnits="userSpaceOnUse" color-interpolation-filters="sRGB">
<feFlood flood-opacity="0" result="BackgroundImageFix"/>
<feColorMatrix in="SourceAlpha" type="matrix" values="0 0 0 0 0 0 0 0 0 0 0 0 0 0 0 0 0 0 127 0" result="hardAlpha"/>
<feOffset dy="4"/>
<feGaussianBlur stdDeviation="2"/>
<feComposite in2="hardAlpha" operator="out"/>
<feColorMatrix type="matrix" values="0 0 0 0 0 0 0 0 0 0 0 0 0 0 0 0 0 0 0.25 0"/>
<feBlend mode="normal" in2="BackgroundImageFix" result="effect1_dropShadow_104_1580"/>
<feBlend mode="normal" in="SourceGraphic" in2="effect1_dropShadow_104_1580" result="shape"/>
</filter>
<linearGradient id="paint0_linear_104_1580" x1="7.27713" y1="49.0908" x2="73.9999" y2="49.0908" gradientUnits="userSpaceOnUse">
<stop stop-color="#4C4C4C"/>
<stop offset="0.05" stop-color="#747474"/>
<stop offset="0.11" stop-color="#A5A5A5"/>
<stop offset="0.18" stop-color="#CCCCCC"/>
<stop offset="0.23" stop-color="#E8E8E8"/>
<stop offset="0.28" stop-color="#F9F9F9"/>
<stop offset="0.32" stop-color="white"/>
<stop offset="0.36" stop-color="#F4F4F4"/>
<stop offset="0.44" stop-color="#D7D7D7"/>
<stop offset="0.53" stop-color="#A8A8A8"/>
<stop offset="0.64" stop-color="#676767"/>
<stop offset="0.69" stop-color="#4C4C4C"/>
<stop offset="0.73" stop-color="#616161"/>
<stop offset="0.82" stop-color="#979797"/>
<stop offset="0.94" stop-color="#E8E8E8"/>
<stop offset="0.97" stop-color="#E6E6E6"/>
<stop offset="0.98" stop-color="#D4D4D4"/>
<stop offset="0.99" stop-color="#919191"/>
<stop offset="1" stop-color="#4C4C4C"/>
</linearGradient>
<clipPath id="clip0_104_1580">
<rect width="70" height="70" fill="white" transform="translate(4)"/>
</clipPath>
</defs>
</svg>
